<svg xmlns="http://www.w3.org/2000/svg" version="1.1" width="300px" height="300px" style="shape-rendering:geometricPrecision; text-rendering:geometricPrecision; image-rendering:optimizeQuality; fill-rule:evenodd; clip-rule:evenodd" xmlns:xlink="http://www.w3.org/1999/xlink">
  <g><path style="opacity:1" fill="#f3f3f3" d="M 218.5,60.5 C 224.057,59.0355 227.223,61.0355 228,66.5C 237.297,118.65 246.463,170.817 255.5,223C 255.695,225.352 255.028,227.352 253.5,229C 237.174,231.899 220.84,234.732 204.5,237.5C 202.9,237.449 201.4,237.116 200,236.5C 190.244,181.978 180.41,127.478 170.5,73C 171.101,71.395 172.101,70.0616 173.5,69C 188.679,66.3853 203.679,63.552 218.5,60.5 Z"/></g>
  <g><path style="opacity:1" fill="#f3f3f3" d="M 44.5,67.5 C 63.0765,67.1741 81.5765,67.5075 100,68.5C 100.667,124.5 100.667,180.5 100,236.5C 99.5,237 99,237.5 98.5,238C 80.2597,238.825 62.0931,238.659 44,237.5C 43.1712,180.763 43.3379,124.096 44.5,67.5 Z"/></g>
  <g><path style="opacity:1" fill="#f3f3f3" d="M 109.5,67.5 C 127.503,67.3334 145.503,67.5001 163.5,68C 164,68.5 164.5,69 165,69.5C 165.667,125.167 165.667,180.833 165,236.5C 164.5,237 164,237.5 163.5,238C 145.5,238.667 127.5,238.667 109.5,238C 109,237.5 108.5,237 108,236.5C 107.333,180.833 107.333,125.167 108,69.5C 108.717,68.9558 109.217,68.2891 109.5,67.5 Z"/></g>

  <g><path style="opacity:1" fill="#111111" d="M 212.5,77.5 C 214.833,77.5 217.167,77.5 219.5,77.5C 220.127,82.1408 220.46,86.8075 220.5,91.5C 208.866,93.6858 197.2,95.6858 185.5,97.5C 185.084,92.5068 184.751,87.5068 184.5,82.5C 194.07,81.4621 203.403,79.7954 212.5,77.5 Z"/></g>
  <g><path style="opacity:1" fill="#111111" d="M 54.5,82.5 C 66.1667,82.5 77.8333,82.5 89.5,82.5C 89.5,87.5 89.5,92.5 89.5,97.5C 77.8333,97.5 66.1667,97.5 54.5,97.5C 54.5,92.5 54.5,87.5 54.5,82.5 Z"/></g>
  <g><path style="opacity:1" fill="#111111" d="M 118.5,83.5 C 130.167,83.5 141.833,83.5 153.5,83.5C 153.5,88.1667 153.5,92.8333 153.5,97.5C 141.833,97.5 130.167,97.5 118.5,97.5C 118.5,92.8333 118.5,88.1667 118.5,83.5 Z"/></g>

  <g><path style="opacity:1" fill="#111111" d="M 218.5,108.5 C 220.5,108.5 222.5,108.5 224.5,108.5C 225.26,113.15 225.926,117.817 226.5,122.5C 214.835,124.5 203.168,126.5 191.5,128.5C 191.067,124.3 190.4,120.133 189.5,116C 189.833,115.5 190.167,115 190.5,114.5C 199.974,112.584 209.308,110.584 218.5,108.5 Z"/></g>
  <g><path style="opacity:1" fill="#111111" d="M 54.5,114.5 C 66.1667,114.5 77.8333,114.5 89.5,114.5C 89.5,119.167 89.5,123.833 89.5,128.5C 77.8333,128.5 66.1667,128.5 54.5,128.5C 54.5,123.833 54.5,119.167 54.5,114.5 Z"/></g>
  <g><path style="opacity:1" fill="#111111" d="M 153.5,114.5 C 153.5,119.167 153.5,123.833 153.5,128.5C 141.833,128.5 130.167,128.5 118.5,128.5C 118.5,123.833 118.5,119.167 118.5,114.5C 130.167,114.5 141.833,114.5 153.5,114.5 Z"/></g>

  <g><path style="opacity:1" fill="#111111" d="M 219.5,197.5 C 232.312,197.141 236.146,202.808 231,214.5C 223.876,219.368 218.209,218.035 214,210.5C 212.831,204.853 214.665,200.519 219.5,197.5 Z"/></g>
  <g><path style="opacity:1" fill="#111111" d="M 69.5,201.5 C 79.1112,202.052 82.9446,207.052 81,216.5C 77.7015,221.22 73.2015,222.72 67.5,221C 61.8181,217.469 60.3181,212.635 63,206.5C 64.9651,204.45 67.1318,202.783 69.5,201.5 Z"/></g>
  <g><path style="opacity:1" fill="#111111" d="M 133.5,201.5 C 144.218,202.036 148.051,207.369 145,217.5C 135.626,225.396 129.459,223.396 126.5,211.5C 127.239,207.088 129.572,203.755 133.5,201.5 Z"/></g>
</svg>
