<svg xmlns="http://www.w3.org/2000/svg" viewBox="0 0 512 512" width="512" height="512">
  <defs>
    <!-- 背景グラデーション -->
    <linearGradient id="bg" x1="0" y1="0" x2="0" y2="1">
      <stop offset="0%" stop-color="#4A90D9"/>
      <stop offset="100%" stop-color="#1B4F8A"/>
    </linearGradient>
    <!-- バインダー表面グラデーション -->
    <linearGradient id="binder-face" x1="0" y1="0" x2="0" y2="1">
      <stop offset="0%" stop-color="#F5F5F5"/>
      <stop offset="100%" stop-color="#D0D0D0"/>
    </linearGradient>
    <!-- バインダー側面（影） -->
    <linearGradient id="binder-side" x1="0" y1="0" x2="1" y2="0">
      <stop offset="0%" stop-color="#A0A0A0"/>
      <stop offset="100%" stop-color="#C8C8C8"/>
    </linearGradient>
    <!-- ラベル -->
    <linearGradient id="label-grad" x1="0" y1="0" x2="0" y2="1">
      <stop offset="0%" stop-color="#6BAEF7"/>
      <stop offset="100%" stop-color="#3B7DD8"/>
    </linearGradient>
    <!-- 光沢 -->
    <linearGradient id="shine" x1="0" y1="0" x2="0" y2="1">
      <stop offset="0%" stop-color="rgba(255,255,255,0.3)"/>
      <stop offset="50%" stop-color="rgba(255,255,255,0.05)"/>
      <stop offset="100%" stop-color="rgba(255,255,255,0)"/>
    </linearGradient>
    <!-- 影フィルター -->
    <filter id="shadow" x="-5%" y="-5%" width="115%" height="115%">
      <feDropShadow dx="2" dy="4" stdDeviation="6" flood-opacity="0.3"/>
    </filter>
    <filter id="shadow-sm" x="-10%" y="-10%" width="125%" height="125%">
      <feDropShadow dx="1" dy="2" stdDeviation="3" flood-opacity="0.25"/>
    </filter>
  </defs>

  <!-- 角丸背景 -->
  <rect width="512" height="512" rx="100" ry="100" fill="url(#bg)"/>

  <!-- 光沢オーバーレイ -->
  <rect width="512" height="260" rx="100" ry="100" fill="url(#shine)"/>

  <!-- バインダー3つ -->
  <g filter="url(#shadow)">
    <!-- バインダー1（左） -->
    <g transform="translate(68, 80)">
      <!-- 側面 -->
      <rect x="8" y="8" width="100" height="340" rx="8" fill="url(#binder-side)"/>
      <!-- 表面 -->
      <rect width="100" height="340" rx="8" fill="url(#binder-face)"/>
      <!-- ラベル上 -->
      <rect x="15" y="40" width="70" height="30" rx="4" fill="url(#label-grad)"/>
      <!-- ラベル下 -->
      <rect x="15" y="85" width="70" height="30" rx="4" fill="url(#label-grad)"/>
      <!-- 穴 -->
      <circle cx="50" cy="280" r="18" fill="#B0B0B0" stroke="#999" stroke-width="2"/>
      <circle cx="50" cy="280" r="10" fill="url(#binder-face)"/>
    </g>

    <!-- バインダー2（中央） -->
    <g transform="translate(190, 75)">
      <rect x="8" y="8" width="100" height="350" rx="8" fill="url(#binder-side)"/>
      <rect width="100" height="350" rx="8" fill="url(#binder-face)"/>
      <rect x="15" y="40" width="70" height="30" rx="4" fill="url(#label-grad)"/>
      <rect x="15" y="85" width="70" height="30" rx="4" fill="url(#label-grad)"/>
      <circle cx="50" cy="288" r="18" fill="#B0B0B0" stroke="#999" stroke-width="2"/>
      <circle cx="50" cy="288" r="10" fill="url(#binder-face)"/>
    </g>

    <!-- バインダー3（右、少し傾き） -->
    <g transform="translate(320, 70) rotate(8, 50, 175)">
      <rect x="8" y="8" width="100" height="350" rx="8" fill="url(#binder-side)"/>
      <rect width="100" height="350" rx="8" fill="url(#binder-face)"/>
      <rect x="15" y="40" width="70" height="30" rx="4" fill="url(#label-grad)"/>
      <rect x="15" y="85" width="70" height="30" rx="4" fill="url(#label-grad)"/>
      <circle cx="50" cy="288" r="18" fill="#B0B0B0" stroke="#999" stroke-width="2"/>
      <circle cx="50" cy="288" r="10" fill="url(#binder-face)"/>
    </g>
  </g>
</svg>
