<svg xmlns="http://www.w3.org/2000/svg" viewBox="0 0 512 512" width="512" height="512">
  <defs>
    <!-- バインダー表面グラデーション -->
    <linearGradient id="binder-face" x1="0" y1="0" x2="0" y2="1">
      <stop offset="0%" stop-color="#F5F5F5"/>
      <stop offset="100%" stop-color="#D0D0D0"/>
    </linearGradient>
    <!-- バインダー側面（影） -->
    <linearGradient id="binder-side" x1="0" y1="0" x2="1" y2="0">
      <stop offset="0%" stop-color="#A0A0A0"/>
      <stop offset="100%" stop-color="#C8C8C8"/>
    </linearGradient>
    <!-- ラベル（青） -->
    <linearGradient id="label-grad" x1="0" y1="0" x2="0" y2="1">
      <stop offset="0%" stop-color="#6BAEF7"/>
      <stop offset="100%" stop-color="#3B7DD8"/>
    </linearGradient>
    <!-- 影フィルター -->
    <filter id="shadow" x="-5%" y="-5%" width="115%" height="115%">
      <feDropShadow dx="3" dy="5" stdDeviation="8" flood-opacity="0.35"/>
    </filter>
  </defs>

  <!-- バインダー3つ -->
  <g filter="url(#shadow)">
    <!-- バインダー1（左） -->
    <g transform="translate(48, 50)">
      <rect x="8" y="8" width="115" height="390" rx="8" fill="url(#binder-side)"/>
      <rect width="115" height="390" rx="8" fill="url(#binder-face)"/>
      <rect x="18" y="45" width="80" height="32" rx="4" fill="url(#label-grad)"/>
      <rect x="18" y="95" width="80" height="32" rx="4" fill="url(#label-grad)"/>
      <circle cx="58" cy="320" r="20" fill="#B0B0B0" stroke="#999" stroke-width="2"/>
      <circle cx="58" cy="320" r="11" fill="url(#binder-face)"/>
    </g>

    <!-- バインダー2（中央） -->
    <g transform="translate(185, 40)">
      <rect x="8" y="8" width="115" height="405" rx="8" fill="url(#binder-side)"/>
      <rect width="115" height="405" rx="8" fill="url(#binder-face)"/>
      <rect x="18" y="45" width="80" height="32" rx="4" fill="url(#label-grad)"/>
      <rect x="18" y="95" width="80" height="32" rx="4" fill="url(#label-grad)"/>
      <circle cx="58" cy="335" r="20" fill="#B0B0B0" stroke="#999" stroke-width="2"/>
      <circle cx="58" cy="335" r="11" fill="url(#binder-face)"/>
    </g>

    <!-- バインダー3（右、少し傾き） -->
    <g transform="translate(330, 35) rotate(8, 58, 200)">
      <rect x="8" y="8" width="115" height="405" rx="8" fill="url(#binder-side)"/>
      <rect width="115" height="405" rx="8" fill="url(#binder-face)"/>
      <rect x="18" y="45" width="80" height="32" rx="4" fill="url(#label-grad)"/>
      <rect x="18" y="95" width="80" height="32" rx="4" fill="url(#label-grad)"/>
      <circle cx="58" cy="335" r="20" fill="#B0B0B0" stroke="#999" stroke-width="2"/>
      <circle cx="58" cy="335" r="11" fill="url(#binder-face)"/>
    </g>
  </g>
</svg>
